<?xml version="1.0" encoding="UTF-8" standalone="no"?>
<!DOCTYPE svg PUBLIC "-//W3C//DTD SVG 1.1//EN" "http://www.w3.org/Graphics/SVG/1.1/DTD/svg11.dtd">
<svg width="100%" height="100%" viewBox="0 0 128 128" version="1.1" xmlns="http://www.w3.org/2000/svg" xmlns:xlink="http://www.w3.org/1999/xlink" xml:space="preserve" xmlns:serif="http://www.serif.com/" style="fill-rule:evenodd;clip-rule:evenodd;stroke-linejoin:round;stroke-miterlimit:2;">
    <g transform="matrix(1,0,0,1,2,2)">
        <path d="M126,8.023L126,119.977C126,123.301 123.301,126 119.977,126L8.023,126C4.699,126 2,123.301 2,119.977L2,8.023C2,4.699 4.699,2 8.023,2L119.977,2C123.301,2 126,4.699 126,8.023Z" style="fill:rgb(69,29,84);"/>
    </g>
    <path d="M126,8.023L126,119.977C126,123.301 123.301,126 119.977,126L8.023,126C4.699,126 2,123.301 2,119.977L2,8.023C2,4.699 4.699,2 8.023,2L119.977,2C123.301,2 126,4.699 126,8.023Z" style="fill:rgb(158,71,191);"/>
    <g transform="matrix(0.0848152,0,0,0.0848152,20.6086,19.0469)">
        <path d="M85.198,731.05C81.657,729.004 78.469,726.43 75.74,723.438C69.294,716.371 65.396,706.981 65.396,696.748L65.404,440.33C47.667,416.618 30.974,392.124 15.326,366.846C7.561,354.302 7.412,338.482 14.938,325.794C39.894,283.726 69.484,245.224 103.709,210.286C115.454,198.295 133.483,195.012 148.702,202.09C170.037,212.013 190.683,223.143 210.634,235.48C226.188,222.789 242.494,211.04 259.553,200.24C256.646,173.419 254.93,146.598 254.404,119.776C254.098,104.204 262.949,89.899 277.02,83.221C319.077,63.262 362.916,48.291 408.537,38.311C425.094,34.689 442.121,42.005 450.89,56.508C464.1,78.354 476.205,100.752 487.202,123.699C503.734,122.627 520.266,122.627 536.792,123.701C547.795,100.752 559.901,78.354 573.11,56.508L581.102,47.036C584.189,44.368 587.656,42.207 591.366,40.612C595.076,39.018 599.03,37.991 603.091,37.588L615.463,38.311C661.084,48.291 704.923,63.262 746.98,83.221C761.051,89.899 769.902,104.204 769.596,119.776C769.07,146.598 767.354,173.42 764.443,200.234C781.505,211.04 797.813,222.789 813.361,235.48C833.317,223.144 853.963,212.014 875.298,202.09C890.517,195.012 908.546,198.295 920.291,210.286C954.516,245.224 984.106,283.726 1009.06,325.794C1012.83,332.138 1014.67,339.265 1014.6,346.374C1014.57,349.928 1014.06,353.477 1013.07,356.922L1008.67,366.846C993.026,392.123 976.334,416.617 958.604,440.319L958.604,696.748C958.604,706.981 954.706,716.371 948.26,723.438C945.531,726.43 942.343,729.004 938.802,731.05L938.802,758.603L938.802,758.675C938.578,820.528 903.022,870.688 844.575,907.8C763.724,959.137 637.721,985.405 511.625,985.405C385.519,985.405 259.599,959.13 178.928,907.789C120.59,870.66 85.198,820.483 85.198,758.603L85.198,731.05ZM124.802,741.257L124.802,758.603C124.802,807.126 154.446,845.263 200.192,874.377C275.641,922.396 393.681,945.801 511.625,945.801C629.579,945.801 747.715,922.389 823.345,874.366C869.215,845.24 899.013,807.093 899.198,758.553L899.198,741.257L803.533,749.825L799.75,802.034C799.691,802.858 799.579,803.677 799.417,804.486L795.759,814.648L788.974,823.364C784.475,827.542 778.516,830.885 770.803,832.814C769.667,833.098 768.509,833.28 767.341,833.359L605.341,844.359C604.895,844.39 604.448,844.405 604,844.405C600.088,844.405 596.509,843.905 593.249,843.009L582.782,838.171L578.25,834.434L574.485,830.062L569.39,820.37C568.947,819.153 568.625,817.894 568.428,816.614L561.011,768.405L462.989,768.405L455.572,816.614C455.375,817.894 455.053,819.153 454.61,820.37L449.515,830.062L445.75,834.434L441.218,838.171L430.751,843.009C427.491,843.905 423.912,844.405 420,844.405C419.552,844.405 419.105,844.39 418.659,844.359L256.659,833.359C255.491,833.28 254.333,833.098 253.197,832.814C245.484,830.885 239.525,827.542 235.026,823.364L228.241,814.648L224.583,804.486C224.421,803.677 224.309,802.858 224.25,802.034L220.467,749.824L124.802,741.257ZM607,77C592.162,101.539 578.79,126.812 566.883,152.817C563.354,160.525 555.309,165.132 546.874,164.273C523.626,161.908 500.374,161.908 477.122,164.273C468.687,165.131 460.642,160.524 457.113,152.815C445.21,126.811 431.838,101.539 417,77C374.333,86.333 333.333,100.333 294,119C294.582,148.695 296.69,178.389 300.323,208.084C301.274,215.855 297.557,223.458 290.839,227.479C267.495,241.453 245.626,257.275 225.234,274.942C218.552,280.731 208.842,281.39 201.44,276.556C179.237,262.056 156.089,249.204 132,238C100,270.667 72.333,306.667 49,346C65.167,372.116 82.494,397.361 100.98,421.737C103.591,425.18 105.005,429.382 105.004,433.703L105,696.748L254.305,710.496C264.046,711.393 271.673,719.269 272.256,729.035L276,791.748C275.41,781.861 285.876,792.497 276,791.748L408,801.748C397.515,800.954 409.367,791.323 408,801.748L415.708,742.975C417.001,733.118 425.401,725.748 435.342,725.748L588.658,725.748C598.599,725.748 606.999,733.119 608.292,742.975L616,801.748C614.633,791.323 626.485,800.954 616,801.748L748,791.748C738.124,792.497 748.59,781.861 748,791.748L751.744,729.035C752.327,719.269 759.954,711.393 769.695,710.496L919,696.748L919,433.697C919,429.376 920.413,425.174 923.024,421.731C941.507,397.36 958.834,372.115 975,346C971.117,352.272 971.237,339.656 975,346C951.667,306.667 924,270.667 892,238C867.911,249.204 844.763,262.056 822.557,276.556C815.154,281.389 805.445,280.73 798.763,274.941C778.373,257.274 756.504,241.452 733.158,227.476C726.44,223.454 722.722,215.851 723.674,208.079C727.31,178.388 729.418,148.694 730,119C729.847,126.786 722.964,115.661 730,119C690.667,100.333 649.667,86.333 607,77C615.279,78.811 602.615,84.252 607,77Z" style="fill:rgb(235,235,235);"/>
    </g>
    <rect x="6.073" y="52.59" width="112.31" height="22.716" style="fill:rgb(158,71,191);"/>
    <g id="Nexus" transform="matrix(0.144993,0,0,0.144993,-11.3135,-48.7476)">
        <g>
            <path d="M119.32,841.949C111.865,841.326 106,835.07 106,827.455L106,727.545C106,719.93 111.865,713.674 119.32,713.051C119.527,713.017 119.74,713 119.956,713L148.246,713C151.318,714.237 154.777,715.887 158,718C166.195,723.374 172.561,731.943 177.883,737.546C193.717,754.212 234,810 234,810L234,717.121C234,714.847 235.847,713 238.121,713L254.879,713C255.433,713 255.961,713.109 256.444,713.308C263.04,714.688 268,720.542 268,727.545L268,827.455C268,834.458 263.04,840.312 256.444,841.692C255.961,841.891 255.433,842 254.879,842L225.754,842C222.682,840.763 219.223,839.113 216,837C207.805,831.626 201.439,823.057 196.117,817.454C180.283,800.788 140,745 140,745L140,838.044C140,840.227 138.227,842 136.044,842L119.956,842C119.74,842 119.527,841.983 119.32,841.949Z" style="fill:rgb(235,235,235);"/>
            <g transform="matrix(1,0,0,1,166,0)">
                <path d="M263.384,842L150.778,842C126.064,842 106,821.936 106,797.222L106,757.778C106,733.064 126.064,713 150.778,713L263.384,713C265.932,713 268,715.068 268,717.616L268,736.384C268,738.485 266.593,740.26 264.672,740.818L264.746,741L164.339,741C151.486,741 140.855,750.591 139.218,763L263.384,763C265.932,763 268,765.068 268,767.616L268,786.384C268,788.932 265.932,791 263.384,791L139.107,791C140.289,803.89 151.143,814 164.339,814L264.746,814C264.721,814.061 264.696,814.122 264.672,814.182C266.593,814.74 268,816.515 268,818.616L268,837.384C268,839.932 265.932,842 263.384,842Z" style="fill:rgb(235,235,235);"/>
            </g>
            <g transform="matrix(3.25061e-17,-0.530864,0.232558,1.42401e-17,438.186,855.272)">
                <path d="M109.349,713L258.684,713C263.826,713 268,722.528 268,734.265L268,820.735C268,832.472 263.826,842 258.684,842L129.067,842C100.741,842 77.744,894.496 77.744,959.155L77.744,1163.44C77.744,1228.1 100.741,1280.6 129.067,1280.6L258.684,1280.6C263.826,1280.6 268,1290.13 268,1301.87L268,1388.34C268,1400.07 263.826,1409.6 258.684,1409.6L109.349,1409.6C62.795,1409.6 25,1323.32 25,1217.06L25,905.544C25,799.276 62.795,713 109.349,713Z" style="fill:rgb(235,235,235);"/>
            </g>
            <g transform="matrix(1,0,0,1,664,0)">
                <path d="M106,786.884L106,757.778C106,733.064 126.064,713 150.778,713L263.384,713C265.932,713 268,715.068 268,717.616L268,736.384C268,738.485 266.593,740.26 264.672,740.818L264.746,741L147.59,741C141.745,741 137,745.745 137,751.59L137,752.91C137,758.755 141.745,763.5 147.59,763.5L263.384,763.5C265.932,763.5 268,765.568 268,768.116L268,797.222C268,821.936 247.936,842 223.222,842L110.616,842C108.068,842 106,839.932 106,837.384L106,818.616C106,816.515 107.407,814.74 109.328,814.182L109.254,814L224.41,814C230.255,814 235,809.255 235,803.41L235,802.09C235,796.245 230.255,791.5 224.41,791.5L110.616,791.5C108.068,791.5 106,789.432 106,786.884Z" style="fill:rgb(235,235,235);"/>
            </g>
            <g transform="matrix(1,0,0,1,332,2.27374e-13)">
                <path d="M147.327,713L226.673,713L187.963,754.427C187.432,754.996 186.568,754.996 186.037,754.427L147.327,713ZM266.148,714.837C267.292,715.977 268,717.553 268,719.294L268,835.706C268,837.447 267.292,839.023 266.148,840.163L208.745,778.729C208.111,778.051 208.111,776.949 208.745,776.271L266.148,714.837ZM226.673,842L147.327,842L186.037,800.573C186.568,800.004 187.432,800.004 187.963,800.573L226.673,842ZM107.852,840.163C106.708,839.023 106,837.447 106,835.706L106,719.294C106,717.553 106.708,715.977 107.852,714.837L165.255,776.271C165.889,776.949 165.889,778.051 165.255,778.729L107.852,840.163Z" style="fill:rgb(235,235,235);"/>
            </g>
        </g>
    </g>
</svg>
